<svg width="1080" height="1080" viewBox="0 0 1080 1080" fill="none" xmlns="http://www.w3.org/2000/svg">
<rect width="1080" height="1080" fill="#1E1E1E"/>
<rect width="1080" height="1080" fill="white"/>
<path d="M667.285 710.92C680.447 720.976 689.528 736.432 691.993 752.782C694.222 778.259 691.224 799.674 674.522 819.82C661.467 833.391 648.99 837.026 630.381 837.524C617.808 837.642 608.652 835.291 598.75 827.374C596.88 825.504 595.011 823.635 593.085 821.709C592.462 844.766 591.838 867.823 591.196 891.579C580.603 891.579 570.009 891.579 559.094 891.579C559.094 829.885 559.094 768.192 559.094 704.628C568.441 704.628 577.789 704.628 587.42 704.628C588.666 708.99 589.912 713.353 591.196 717.847C591.953 717.095 592.711 716.343 593.491 715.568C614.773 695.733 642.741 696.662 667.285 710.92ZM594.272 743.827C586.919 755.99 587.454 770.024 590.488 783.528C595.048 797.043 603.188 804.099 615.746 810.378C627.835 811.951 636.574 810.769 646.55 803.629C655.616 795.969 660.342 787.762 661.834 776.011C662.264 760.014 660.459 748.985 649.737 736.731C642.38 729.374 634.52 728.56 624.361 727.997C610.328 728.481 602.789 732.908 594.272 743.827Z" fill="#353458"/>
<path d="M298.496 644.2C308.466 644.2 318.437 644.2 328.71 644.2C329.333 681.59 329.956 718.98 330.598 757.503C338.544 748.779 346.489 740.055 354.675 731.066C382.783 701.608 382.783 701.608 400.699 700.911C407.867 701.507 414.324 702.62 421.241 704.628C414.715 712.599 407.903 719.923 400.476 727.068C398.8 728.687 397.124 730.305 395.397 731.973C391.899 735.335 388.382 738.679 384.849 742.005C383.19 743.619 381.531 745.233 379.822 746.896C378.302 748.345 376.782 749.793 375.216 751.286C371.658 755.382 371.658 755.382 372.267 760.404C374.125 765.305 376.184 768.611 379.468 772.684C380.578 774.082 381.688 775.48 382.832 776.92C384.017 778.38 385.203 779.84 386.424 781.344C388.846 784.386 391.265 787.43 393.682 790.476C394.853 791.946 396.024 793.416 397.23 794.93C402.543 801.686 407.52 808.66 412.515 815.653C415.289 819.43 418.184 822.999 421.241 826.548C425.018 831.151 425.018 831.151 425.018 834.927C418.881 835.202 412.747 835.37 406.606 835.518C404.868 835.597 403.13 835.676 401.339 835.757C388.456 835.991 388.456 835.991 382.898 831.092C381.841 829.242 380.785 827.392 379.696 825.486C378.085 823.141 376.456 820.808 374.813 818.485C373.055 815.903 371.299 813.318 369.546 810.732C362.464 800.349 355.27 790.122 347.594 780.164C345.468 781.972 343.344 783.782 341.22 785.593C340.037 786.601 338.854 787.609 337.635 788.647C332.253 792.965 332.253 792.965 329.996 799.167C329.907 801.511 329.907 801.511 329.816 803.902C329.743 805.594 329.67 807.285 329.595 809.028C329.507 811.683 329.507 811.683 329.418 814.391C329.345 816.176 329.272 817.96 329.197 819.798C329.018 824.211 328.862 828.625 328.71 833.039C318.739 833.039 308.768 833.039 298.496 833.039C298.496 770.722 298.496 708.405 298.496 644.2Z" fill="#323157"/>
<path d="M986.829 711.606C999.077 721.591 1005.48 733.231 1010.42 748.061C1010.42 758.032 1010.42 768.003 1010.42 778.276C978.638 778.276 946.856 778.276 914.111 778.276C920.447 796.167 920.447 796.167 932.995 806.601C945.065 810.625 960.797 810.742 972.784 806.38C975.912 804.728 978.994 802.981 981.998 801.113C985.87 799.048 985.87 799.048 993.424 799.048C996.293 801.674 996.293 801.674 998.735 805.185C999.565 806.324 1000.4 807.464 1001.25 808.637C1002.87 812.267 1002.87 812.267 1002.68 816.117C1000.38 821.109 997.571 822.8 992.952 825.721C991.501 826.661 990.05 827.601 988.555 828.569C971.586 838.148 950.803 839.463 931.808 835.879C915.037 830.716 901.375 821.135 891.451 806.601C881.826 787.206 878.527 766.852 884.133 745.583C889.825 729.224 902.604 714.896 917.682 706.391C939.917 696.385 966.637 697.956 986.829 711.606ZM919.777 738.619C915.173 745.812 914.111 748.902 914.111 757.503C935.922 757.503 957.733 757.503 980.205 757.503C979.007 742.718 979.007 742.718 970.763 732.954C961.642 726.172 951.936 726.118 940.933 726.382C931.618 727.779 925.956 731.648 919.777 738.619Z" fill="#333256"/>
<path d="M249.043 712.418C260.753 727.808 263.993 740.897 263.538 760.056C263.525 762.208 263.511 764.361 263.498 766.579C263.445 773.391 263.327 780.199 263.206 787.009C263.159 791.654 263.116 796.299 263.077 800.944C262.974 812.273 262.811 823.6 262.616 834.927C252.645 834.927 242.675 834.927 232.402 834.927C232.374 832.422 232.347 829.917 232.318 827.336C232.209 818.006 232.063 808.677 231.906 799.347C231.844 795.316 231.791 791.285 231.748 787.253C231.684 781.445 231.585 775.638 231.48 769.829C231.468 768.039 231.456 766.248 231.443 764.404C231.21 753.779 229.925 746.128 224.848 736.731C218.038 730.522 211.543 730.3 202.711 730.653C193.752 731.513 187.377 732.717 180.825 739.091C173.828 750.494 173.249 761.06 173.08 774.071C173.043 775.815 173.007 777.56 172.969 779.357C172.856 784.898 172.769 790.438 172.681 795.979C172.609 799.749 172.535 803.518 172.46 807.288C172.279 816.501 172.12 825.714 171.973 834.927C162.002 834.927 152.032 834.927 141.759 834.927C141.759 791.929 141.759 748.93 141.759 704.628C151.106 704.628 160.454 704.628 170.085 704.628C170.085 710.237 170.085 715.845 170.085 721.624C171.331 721.624 172.577 721.624 173.862 721.624C174.297 720.502 174.733 719.379 175.182 718.223C178.281 712.983 181.491 711.105 186.726 708.051C188.335 707.089 189.944 706.128 191.602 705.137C210.609 695.876 232.604 699.997 249.043 712.418Z" fill="#323258"/>
<path d="M528.88 712.182C527.689 718.26 525.518 722.583 522.152 727.761C521.293 729.095 520.434 730.429 519.548 731.803C518.559 733.308 518.559 733.308 517.549 734.843C511.738 733.962 507.512 732.657 502.206 730.004C493.341 726.048 483.626 725.804 474.116 727.289C469.738 729.615 469.738 729.615 466.563 732.954C464.989 738.537 464.989 738.537 466.563 744.285C473.354 750.882 480.702 752.832 489.695 755.497C506.817 760.573 521.346 765.069 530.768 781.182C534.599 790.609 534.328 799.209 531.395 808.866C525.668 821.996 515.524 830.3 502.401 835.683C495.66 837.727 489.018 837.652 482.024 837.524C480.525 837.506 479.025 837.488 477.481 837.47C459.207 837.001 445.608 832.256 430.683 821.709C433.641 813.574 437.639 806.485 442.013 799.048C447.093 800.935 451.57 802.896 456.176 805.775C464.265 810.426 472.581 810.747 481.788 810.968C483.718 811.039 485.648 811.11 487.637 811.182C493.204 810.781 493.204 810.781 497.507 807.007C501.307 802.729 501.307 802.729 500.082 795.743C499.614 793.718 499.147 791.693 498.665 789.606C495.008 788.187 491.348 786.771 487.689 785.357C485.452 784.488 483.215 783.619 480.91 782.724C474.985 780.491 469.033 778.487 463.022 776.505C452.298 772.623 443.218 767.382 437.934 756.957C434.286 745.182 434.227 731.858 439.417 720.68C465.451 693.275 496.795 696.882 528.88 712.182Z" fill="#343357"/>
<path d="M70 655.53C80.5939 655.53 91.1878 655.53 102.103 655.53C102.103 714.731 102.103 773.932 102.103 834.927C91.5088 834.927 80.9149 834.927 70 834.927C70 775.726 70 716.525 70 655.53Z" fill="#37375A"/>
<path d="M868.79 700.852C870.679 702.74 870.679 702.74 870.863 709.121C870.85 711.754 870.828 714.388 870.797 717.021C870.788 718.364 870.78 719.706 870.771 721.089C870.749 724.415 870.715 727.74 870.679 731.066C867.809 731.139 867.809 731.139 864.881 731.214C862.328 731.32 859.776 731.428 857.224 731.538C855.968 731.565 854.712 731.592 853.418 731.619C843.855 732.088 838.236 734.254 831.022 740.508C823.359 751.348 822.336 759.691 822.318 772.78C822.287 774.564 822.256 776.348 822.223 778.185C822.132 783.841 822.092 789.497 822.053 795.153C821.999 799.005 821.943 802.857 821.883 806.709C821.744 816.115 821.65 825.521 821.58 834.928C810.987 834.928 800.393 834.928 789.478 834.928C789.478 791.929 789.478 748.93 789.478 704.628C799.448 704.628 809.419 704.628 819.692 704.628C820.315 710.237 820.938 715.846 821.58 721.624C822.593 720.222 823.606 718.82 824.649 717.375C836.572 703.57 851.06 699.766 868.79 700.852Z" fill="#363659"/>
<path d="M753.598 702.74C753.598 746.362 753.598 789.984 753.598 834.927C743.004 834.927 732.411 834.927 721.496 834.927C721.453 817.971 721.418 801.015 721.398 784.059C721.388 776.186 721.375 768.313 721.353 760.441C721.333 752.849 721.321 745.258 721.316 737.667C721.313 734.764 721.306 731.861 721.296 728.959C721.282 724.907 721.28 720.856 721.281 716.804C721.277 714.493 721.273 712.183 721.269 709.802C721.97 693.811 733.576 702.74 753.598 702.74Z" fill="#3C3B5E"/>
<path d="M742.268 644.2C749.175 648.052 752.974 650.817 757.375 657.419C758.388 665.019 757.657 668.251 753.834 675.004C749.811 680.092 748.535 681.625 742.29 682.484C733.807 682.855 730.277 682.94 723.384 677.483C717.922 670.314 716.673 666.479 717.719 657.419C724.162 647.008 730.012 643.021 742.268 644.2Z" fill="#39375B"/>
<path d="M759.263 258.973C769.857 258.973 780.451 258.973 791.366 258.973C791.366 359.927 791.366 460.88 791.366 564.893C781.395 565.516 771.425 566.139 761.152 566.781C753.011 567.718 744.965 568.697 736.877 569.943C734.071 570.369 731.261 570.775 728.45 571.166C673.599 578.848 614.65 594.168 565.204 619.41C560.491 621.793 555.73 623.935 550.832 625.912C549.337 626.527 547.843 627.143 546.303 627.778C542.098 629.098 542.098 629.098 534.545 629.098C534.155 627.774 533.766 626.45 533.364 625.085C530.384 618.854 526.809 615.615 521.599 611.21C520.886 610.258 520.172 609.307 519.438 608.326C520.05 604.202 520.05 604.202 521.326 600.772C528.643 602.425 528.643 602.425 530.768 604.549C531.391 573.391 532.014 542.232 532.656 510.129C536.395 510.129 540.134 510.129 543.987 510.129C544.61 541.288 545.233 572.446 545.875 604.549C548.679 600.81 548.679 600.81 551.54 596.996C552.787 596.996 554.033 596.996 555.317 596.996C555.317 598.242 555.317 599.488 555.317 600.772C556.563 600.772 557.81 600.772 559.094 600.772C555.553 609.742 555.553 609.742 553.429 613.991C555.189 612.667 556.949 611.343 558.762 609.978C595.416 582.601 632.74 563.817 676.174 549.786C678.443 549.048 680.712 548.311 683.049 547.551C696.21 543.543 709.544 540.648 723.03 537.983C724.676 537.652 726.323 537.32 728.02 536.979C729.618 536.677 731.216 536.376 732.863 536.065C734.969 535.663 734.969 535.663 737.118 535.252C744.457 534.435 751.879 534.679 759.263 534.679C759.263 443.696 759.263 352.713 759.263 258.973Z" fill="#353459"/>
<path d="M285.277 258.973C295.871 258.973 306.465 258.973 317.379 258.973C317.379 349.956 317.379 440.939 317.379 534.679C326.104 535.302 334.828 535.925 343.817 536.567C350.005 537.496 356.006 538.477 362.111 539.754C363.702 540.083 365.293 540.412 366.932 540.752C427.925 553.915 481.462 582.184 530.768 619.656C532.014 620.279 533.261 620.903 534.545 621.545C534.545 623.414 534.545 625.284 534.545 627.21C524.935 624.21 515.746 620.882 506.663 616.539C438.183 583.956 360.305 571.145 285.277 564.893C285.277 463.939 285.277 362.986 285.277 258.973Z" fill="#353459"/>
<path d="M534.545 351.504C534.638 360.579 534.706 369.653 534.752 378.728C534.771 381.817 534.797 384.905 534.83 387.993C534.875 392.428 534.897 396.862 534.913 401.296C534.933 402.681 534.952 404.066 534.973 405.493C534.973 408.901 534.775 412.309 534.545 415.71C533.298 416.956 532.052 418.202 530.768 419.487C530.138 424.208 530.138 424.208 530.768 428.929C532.014 430.175 533.261 431.421 534.545 432.705C539.46 432.1 539.46 432.1 543.987 430.817C545.285 426.372 545.285 426.372 545.875 421.375C544.629 419.505 543.382 417.636 542.098 415.71C541.843 410.733 541.843 410.733 542.142 404.829C542.24 402.718 542.337 400.606 542.438 398.43C542.559 396.226 542.681 394.022 542.806 391.751C542.913 389.525 543.021 387.299 543.131 385.005C543.398 379.502 543.684 374.001 543.987 368.5C545.233 368.5 546.479 368.5 547.763 368.5C548.503 369.967 548.503 369.967 549.257 371.464C551.573 376.033 553.912 380.589 556.261 385.141C557.106 386.78 557.952 388.419 558.823 390.107C564.771 401.403 571.18 411.219 579.483 420.947C581.754 425.152 581.754 425.152 580.604 429.725C579.304 432.135 579.304 432.135 577.978 434.594C577.082 436.38 576.186 438.167 575.263 440.008C573.3 443.787 571.333 447.564 569.362 451.338C565.99 458.294 565.99 458.294 562.871 470.473C546.668 470.473 530.466 470.473 513.772 470.473C511.28 462.995 508.787 455.517 506.219 447.812C503.322 442.612 500.182 438.016 496.733 433.185C494.888 428.929 494.888 428.929 496.098 424.178C498.629 419.553 501.368 415.53 504.566 411.343C510.551 402.933 515.619 394.279 520.382 385.141C521.066 383.886 521.75 382.63 522.455 381.337C526.945 372.473 527.129 367.141 525.103 357.17C528.075 352.782 529.203 351.504 534.545 351.504Z" fill="#312F55"/>
<path d="M723.384 202.321C726.5 202.321 729.616 202.321 732.826 202.321C732.826 298.29 732.826 394.258 732.826 493.134C722.836 497.574 714.078 501.419 703.91 504.7C674.891 514.948 648.22 529.969 623.299 547.897C620.338 549.993 620.338 549.993 617.317 552.131C596.775 567.066 578.714 584.526 560.982 602.661C559.113 602.038 557.243 601.414 555.317 600.772C554.694 598.903 554.071 597.033 553.429 595.107C564.785 582.395 575.984 569.93 589.308 559.228C591 557.843 592.692 556.458 594.435 555.03C611.932 541.107 630.564 529.163 649.737 517.683C651.554 516.594 651.554 516.594 653.408 515.484C675.178 502.671 697.671 494.903 721.496 485.58C722.119 392.105 722.742 298.629 723.384 202.321Z" fill="#353459"/>
<path d="M540.21 157C554.791 169.866 565.277 188.289 567.178 207.758C567.865 230.157 559.81 247.139 549.032 266.254C541.112 280.687 535.549 294.792 535.961 311.494C535.99 313.493 536.019 315.491 536.049 317.55C536.403 322.739 537.161 327.558 538.321 332.621C522.965 318.127 513.977 299.398 512.915 278.379C512.486 258.95 518.471 245.167 527.493 228.309C528.245 226.901 528.997 225.492 529.773 224.041C531.262 221.281 532.774 218.532 534.312 215.799C543.704 198.763 547.268 180.431 542.098 161.367C541.475 159.926 540.852 158.485 540.21 157Z" fill="#649791"/>
<path d="M343.817 202.321C346.933 202.321 350.049 202.321 353.259 202.321C353.259 296.42 353.259 390.519 353.259 487.469C360.114 489.338 366.969 491.208 374.031 493.134C380.197 495.578 386.187 498.061 392.207 500.806C393.719 501.469 395.23 502.132 396.788 502.816C407.777 507.751 407.777 507.751 409.911 512.018C409.288 513.887 408.664 515.757 408.022 517.683C401.229 516.563 395.776 514.697 389.61 511.664C378.736 506.554 367.594 502.602 356.233 498.739C345.882 495.199 345.882 495.199 343.817 493.134C343.634 489.382 343.587 485.623 343.59 481.866C343.587 479.417 343.585 476.967 343.582 474.444C343.589 471.704 343.596 468.964 343.603 466.224C343.603 463.358 343.603 460.493 343.602 457.628C343.601 449.825 343.612 442.022 343.625 434.219C343.637 426.073 343.638 417.928 343.641 409.782C343.646 394.346 343.662 378.911 343.681 363.475C343.702 345.907 343.712 328.338 343.722 310.77C343.742 274.62 343.775 238.471 343.817 202.321Z" fill="#353459"/>
<path d="M511.884 479.915C528.709 479.915 545.535 479.915 562.87 479.915C562.87 486.77 562.87 493.625 562.87 500.687C546.045 500.687 529.219 500.687 511.884 500.687C511.884 493.833 511.884 486.978 511.884 479.915Z" fill="#333158"/>
<path d="M445.79 532.79C453.603 533.917 459.264 538.311 465.5 542.822C466.66 543.657 467.819 544.492 469.014 545.353C481.696 554.687 493.06 565.257 504.33 576.223C505.349 577.203 506.367 578.182 507.416 579.191C520.184 591.495 520.184 591.495 525.103 596.995C525.103 598.242 525.103 599.488 525.103 600.772C521.326 603.841 521.326 603.841 517.549 606.437C516.814 605.566 516.079 604.694 515.321 603.797C493.926 578.852 469.861 557.803 442.013 540.344C443.26 537.851 444.506 535.358 445.79 532.79Z" fill="#353458"/>
<path d="M409.911 510.129C414.799 512.471 419.675 514.834 424.546 517.211C425.924 517.868 427.301 518.525 428.721 519.202C436.248 522.897 442.129 526.305 447.679 532.79C445.186 534.66 442.693 536.529 440.125 538.455C428.908 532.224 417.691 525.992 406.134 519.571C407.38 516.455 408.627 513.34 409.911 510.129Z" fill="#3C395B"/>
<path d="M540.21 351.504C547.763 353.393 547.763 353.393 550.36 356.816C551.54 360.946 551.54 360.946 549.888 365.195C549.187 366.286 548.486 367.376 547.763 368.5C546.517 368.5 545.271 368.5 543.987 368.5C543.987 384.079 543.987 399.658 543.987 415.71C542.74 415.71 541.494 415.71 540.21 415.71C540.21 394.522 540.21 373.334 540.21 351.504Z" fill="#524F6E"/>
</svg>
